<svg width="32" height="32" viewBox="0 0 32 32" fill="none" xmlns="http://www.w3.org/2000/svg">
<path d="M10.6667 13.3333H10.68M16 13.3333H16.0133M21.3333 13.3333H21.3467M12 21.3333H6.66667C5.95942 21.3333 5.28115 21.0524 4.78105 20.5523C4.28095 20.0522 4 19.3739 4 18.6667V8.00001C4 7.29277 4.28095 6.61449 4.78105 6.11439C5.28115 5.61429 5.95942 5.33334 6.66667 5.33334H25.3333C26.0406 5.33334 26.7189 5.61429 27.219 6.11439C27.719 6.61449 28 7.29277 28 8.00001V18.6667C28 19.3739 27.719 20.0522 27.219 20.5523C26.7189 21.0524 26.0406 21.3333 25.3333 21.3333H18.6667L12 28V21.3333Z" stroke="#2E7A53" stroke-width="2" stroke-linecap="round" stroke-linejoin="round"/>
</svg>
