<svg width="25" height="12" viewBox="0 0 25 12" fill="none" xmlns="http://www.w3.org/2000/svg">
<path d="M24.8144 7.49753C24.9056 7.64422 24.9647 7.80611 24.9883 7.97396C25.0119 8.14181 24.9997 8.31233 24.9522 8.47578C24.9047 8.63924 24.8229 8.79242 24.7115 8.9266C24.6001 9.06077 24.4613 9.1733 24.3029 9.25777C24.1446 9.34224 23.9698 9.39698 23.7887 9.41889C23.6075 9.44079 23.4234 9.42941 23.247 9.38541C23.0706 9.34141 22.9052 9.26565 22.7604 9.16245C22.6155 9.05925 22.4941 8.93063 22.4029 8.78394L20.4519 5.62151C19.3633 6.25595 18.1896 6.75548 16.9608 7.10732L17.5729 10.4992C17.6332 10.8356 17.5467 11.1805 17.3325 11.4579C17.1183 11.7353 16.794 11.9226 16.4308 11.9785C16.3545 11.9911 16.277 11.9972 16.1994 11.9968C15.8715 11.9965 15.5543 11.8886 15.304 11.6924C15.0536 11.4962 14.8863 11.2243 14.8317 10.9247L14.2357 7.62295C13.0798 7.74159 11.9133 7.74159 10.7573 7.62295L10.1672 10.928C10.1125 11.2279 9.94482 11.5001 9.69401 11.6963C9.44319 11.8926 9.12543 12.0002 8.79712 12C8.71954 12.0004 8.64207 11.9943 8.56569 11.9818C8.38583 11.9537 8.2137 11.8931 8.05914 11.8034C7.90457 11.7137 7.77059 11.5967 7.66485 11.459C7.55912 11.3213 7.48369 11.1657 7.44289 11.001C7.40209 10.8363 7.39671 10.6658 7.42705 10.4992L8.03919 7.09874C6.81041 6.7469 5.6367 6.24738 4.54806 5.61293L2.59711 8.78394C2.50593 8.93063 2.38446 9.05925 2.23963 9.16245C2.0948 9.26565 1.92945 9.34141 1.75301 9.38541C1.57658 9.42941 1.39252 9.44079 1.21134 9.41889C1.03016 9.39698 0.855408 9.34224 0.697067 9.25777C0.538725 9.1733 0.399893 9.06077 0.288496 8.9266C0.177099 8.79242 0.0953186 8.63924 0.0478251 8.47578C0.000331601 8.31233 -0.0119455 8.14181 0.011695 7.97396C0.0353356 7.80611 0.0944307 7.64422 0.185606 7.49753L2.31708 4.05101C1.59474 3.44653 0.924991 2.79021 0.31405 2.08816C0.0984057 1.82171 0.00270434 1.48816 0.0470749 1.15768C0.0914455 0.827199 0.27243 0.525537 0.551961 0.316144C0.831492 0.106751 1.18778 0.00594589 1.5459 0.0349325C1.90401 0.0639191 2.23604 0.220438 2.47214 0.471567C4.32821 2.60058 7.57517 5.1391 12.5 5.1391C17.4248 5.1391 20.6718 2.60058 22.5279 0.471567C22.7601 0.208692 23.0952 0.0416089 23.46 0.00678188C23.8248 -0.0280451 24.1896 0.0722119 24.4749 0.285673C24.7601 0.499134 24.9427 0.808467 24.9827 1.14616C25.0226 1.48385 24.9168 1.82249 24.6883 2.08816C24.0766 2.79029 23.4061 3.44661 22.6829 4.05101L24.8144 7.49753Z" fill="#797070"/>
</svg>
