<svg width="59" height="59" viewBox="0 0 59 59" fill="none" xmlns="http://www.w3.org/2000/svg">
<rect x="1" y="1" width="57" height="57" rx="28.5" fill="white" stroke="#C3BEB1" stroke-width="2"/>
<path d="M40.5484 29.5117C39.9804 34.2417 36.8824 36.1317 35.5444 37.5037C34.2044 38.8797 34.4444 39.1537 34.5344 41.1717C34.5495 41.4214 34.5132 41.6715 34.4279 41.9066C34.3426 42.1417 34.21 42.3569 34.0384 42.5388C33.8667 42.7208 33.6597 42.8657 33.4299 42.9645C33.2001 43.0634 32.9526 43.1142 32.7024 43.1137H27.3864C27.1365 43.1133 26.8892 43.0619 26.6598 42.9628C26.4303 42.8636 26.2235 42.7188 26.0519 42.5371C25.8803 42.3553 25.7475 42.1405 25.6616 41.9058C25.5757 41.6711 25.5386 41.4213 25.5524 41.1717C25.5524 39.1917 25.7364 38.7317 24.5444 37.5037C23.0244 35.9837 19.4484 33.8377 19.4484 27.9357C19.4393 26.4697 19.734 25.0177 20.3139 23.6712C20.8938 22.3248 21.7463 21.113 22.8177 20.1124C23.8892 19.1118 25.1563 18.344 26.5392 17.8574C27.9221 17.3708 29.3909 17.1759 30.8528 17.2851C32.3148 17.3943 33.7383 17.8052 35.0335 18.4918C36.3288 19.1785 37.4678 20.126 38.3787 21.2747C39.2896 22.4234 39.9527 23.7483 40.3261 25.166C40.6996 26.5837 40.7753 28.0633 40.5484 29.5117Z" stroke="#EAE42D" stroke-width="2.5" stroke-linecap="round" stroke-linejoin="round"/>
<path d="M26.9644 43.0036V46.0276C26.9644 46.8536 27.4244 47.5316 27.9904 47.5316H32.0964C32.6664 47.5316 33.1244 46.8516 33.1244 46.0276V43.0036M28.4844 21.9236C27.3035 21.9242 26.1711 22.3937 25.3363 23.2289C24.5014 24.0641 24.0324 25.1967 24.0324 26.3776M41.0164 16.3156L43.6184 13.7136M30.0444 9.28564V12.2516M16.5244 13.7116L19.1084 16.3156" stroke="#EAE42D" stroke-width="2.5" stroke-linecap="round" stroke-linejoin="round"/>
</svg>
