<svg width="39" height="39" viewBox="0 0 39 39" fill="none" xmlns="http://www.w3.org/2000/svg">
<path fill-rule="evenodd" clip-rule="evenodd" d="M3.65625 9.75C3.65625 8.7803 4.04146 7.85032 4.72714 7.16464C5.41282 6.47896 6.3428 6.09375 7.3125 6.09375H31.6875C32.6572 6.09375 33.5872 6.47896 34.2729 7.16464C34.9585 7.85032 35.3438 8.7803 35.3438 9.75V17.6719C35.3438 18.1567 35.5364 18.6217 35.8792 18.9646C36.222 19.3074 36.687 19.5 37.1719 19.5C37.6567 19.5 38.1217 19.3074 38.4646 18.9646C38.8074 18.6217 39 18.1567 39 17.6719V9.75C39 7.8106 38.2296 5.95064 36.8582 4.57928C35.4869 3.20792 33.6269 2.4375 31.6875 2.4375H7.3125C5.3731 2.4375 3.51314 3.20792 2.14178 4.57928C0.770422 5.95064 0 7.8106 0 9.75L0 37.1719C0.000317819 37.5332 0.107708 37.8863 0.308606 38.1867C0.509505 38.487 0.794901 38.7211 1.12875 38.8593C1.4626 38.9976 1.82992 39.0338 2.18433 38.9634C2.53874 38.8929 2.86434 38.7191 3.12 38.4637L9.90356 31.6875H20.1094C20.5942 31.6875 21.0592 31.4949 21.4021 31.1521C21.7449 30.8092 21.9375 30.3442 21.9375 29.8594C21.9375 29.3745 21.7449 28.9095 21.4021 28.5667C21.0592 28.2239 20.5942 28.0312 20.1094 28.0312H8.39231L7.85606 28.5675L3.65625 32.76V9.75ZM31.6875 34.125C31.2027 34.125 30.7377 33.9324 30.3948 33.5896C30.052 33.2467 29.8594 32.7817 29.8594 32.2969V28.6406H26.2031C25.7183 28.6406 25.2533 28.448 24.9104 28.1052C24.5676 27.7623 24.375 27.2973 24.375 26.8125C24.375 26.3277 24.5676 25.8627 24.9104 25.5198C25.2533 25.177 25.7183 24.9844 26.2031 24.9844H29.8594V21.3281C29.8594 20.8433 30.052 20.3783 30.3948 20.0354C30.7377 19.6926 31.2027 19.5 31.6875 19.5C32.1723 19.5 32.6373 19.6926 32.9802 20.0354C33.323 20.3783 33.5156 20.8433 33.5156 21.3281V24.9844H37.1719C37.6567 24.9844 38.1217 25.177 38.4646 25.5198C38.8074 25.8627 39 26.3277 39 26.8125C39 27.2973 38.8074 27.7623 38.4646 28.1052C38.1217 28.448 37.6567 28.6406 37.1719 28.6406H33.5156V32.2969C33.5156 32.7817 33.323 33.2467 32.9802 33.5896C32.6373 33.9324 32.1723 34.125 31.6875 34.125Z" fill="#96938B"/>
</svg>
