<svg width="26" height="21" viewBox="0 0 26 21" fill="none" xmlns="http://www.w3.org/2000/svg">
<path fill-rule="evenodd" clip-rule="evenodd" d="M8.01716 0.0504023C8.3107 -0.0364239 8.62899 -0.0103293 8.90202 0.122947C9.17505 0.256223 9.38046 0.485766 9.47308 0.76109L10.3737 3.43139C11.1908 3.25024 12.0674 3.14921 13.0033 3.14921C13.9393 3.14921 14.8139 3.25024 15.631 3.42965L16.5243 0.762831C16.57 0.626384 16.6439 0.49972 16.7418 0.390072C16.8398 0.280424 16.9597 0.18994 17.0949 0.123785C17.2301 0.0576295 17.3779 0.0170994 17.5298 0.00450843C17.6817 -0.00808255 17.8347 0.00751228 17.9802 0.0504023C18.1257 0.0932924 18.2607 0.162638 18.3776 0.254479C18.4945 0.346321 18.591 0.45886 18.6615 0.585671C18.732 0.712481 18.7752 0.851081 18.7887 0.993555C18.8021 1.13603 18.7855 1.27959 18.7397 1.41604L17.8242 4.14556C19.2397 4.77919 20.5213 5.64787 21.607 6.70961L24.0175 4.44517C24.2349 4.24074 24.53 4.12571 24.8379 4.12539C25.1457 4.12506 25.4411 4.23946 25.6591 4.44342C25.877 4.64739 25.9997 4.9242 26 5.21298C26.0003 5.50175 25.8784 5.77882 25.6609 5.98325L23.1075 8.38182C23.6479 9.07857 24.0694 9.737 24.3814 10.277C24.6231 10.7004 24.8413 11.1353 25.0351 11.5799C25.0622 11.6488 25.087 11.7185 25.1094 11.7889L25.128 11.8656C25.1577 12.0029 25.1577 12.1445 25.128 12.2819C25.1153 12.3366 25.0998 12.3906 25.0815 12.4439L25.0351 12.5693C24.9992 12.6541 24.9528 12.7592 24.8958 12.8846C24.7382 13.2194 24.5666 13.5483 24.3814 13.8705C23.791 14.8985 23.085 15.8644 22.2755 16.7516C20.3684 18.8366 17.3284 21 13.0033 21C8.67827 21 5.63828 18.8366 3.72924 16.7516C2.92041 15.8643 2.21505 14.8984 1.62521 13.8705C1.38358 13.4476 1.1654 13.0133 0.971533 12.5693C0.944429 12.5004 0.919656 12.4307 0.897251 12.3603L0.878681 12.2819C0.874967 12.2592 0.858253 12.1774 0.858253 12.0729C0.858253 11.9683 0.874967 11.8882 0.878681 11.8673C0.891373 11.8127 0.906867 11.7586 0.925107 11.7053C0.938725 11.6624 0.954201 11.6206 0.971533 11.5799C1.00496 11.494 1.05077 11.3889 1.10895 11.2646C1.22595 11.0138 1.3968 10.6741 1.62521 10.277C1.94091 9.72481 2.37546 9.0507 2.93257 8.34001L0.353137 5.99544C0.243639 5.89594 0.156108 5.77718 0.095542 5.64594C0.0349756 5.51471 0.00255995 5.37357 0.000145751 5.23058C-0.00472994 4.94181 0.112893 4.66304 0.327139 4.45562C0.541384 4.24819 0.834703 4.12909 1.14257 4.12452C1.45043 4.11994 1.74762 4.23027 1.96877 4.43123L4.43678 6.67477C5.5141 5.62968 6.78199 4.77372 8.18058 4.14731L7.25948 1.41778C7.21309 1.28123 7.19589 1.13742 7.20889 0.994623C7.22188 0.851823 7.2648 0.712833 7.3352 0.58563C7.40559 0.458427 7.50207 0.345513 7.6191 0.253366C7.73613 0.161219 7.8714 0.0916538 8.01716 0.0486604M3.66982 12.8393C3.52536 12.5883 3.39033 12.3327 3.26498 12.0729C3.84565 10.8975 4.5941 9.80166 5.48972 8.81554C7.14063 7.01444 9.59193 5.32656 13.0033 5.32656C16.4147 5.32656 18.866 7.01618 20.5151 8.81554C21.4107 9.80166 22.1591 10.8975 22.7398 12.0729C22.647 12.2662 22.5151 12.5292 22.3368 12.8393C21.826 13.7288 21.2159 14.5649 20.5169 15.3337C18.866 17.1348 16.4129 18.8226 13.0033 18.8226C9.59379 18.8226 7.14063 17.133 5.48972 15.3337C4.79074 14.5649 4.18069 13.7288 3.66982 12.8393ZM8.79526 12.0206C8.81383 9.85371 10.7192 8.11879 13.0293 8.11879C15.3395 8.11879 17.2188 9.85371 17.204 12.0206C17.1872 14.184 15.2801 15.9189 12.9699 15.9189C10.6597 15.9189 8.7804 14.184 8.79712 12.0189" fill="#797070"/>
</svg>
