<svg width="15" height="15" viewBox="0 0 15 15" fill="none" xmlns="http://www.w3.org/2000/svg">
<path d="M10.1343 0.703231C10.5652 0.272301 11.1438 0.02136 11.7528 0.00130195C12.3618 -0.0187561 12.9557 0.19357 13.4139 0.595219L13.5291 0.703231L14.0948 1.26889C14.5255 1.69968 14.7763 2.27811 14.7963 2.88694C14.8164 3.49578 14.6042 4.08946 14.2028 4.54766L14.0948 4.66287L5.12419 13.6343C4.99735 13.7611 4.8437 13.8579 4.67454 13.9175L4.54492 13.9551L0.981324 14.7776C0.856461 14.8066 0.726448 14.8052 0.602235 14.7735C0.478021 14.7418 0.363243 14.6808 0.267568 14.5954C0.171892 14.5101 0.0981194 14.403 0.0524627 14.2833C0.00680611 14.1635 -0.00939787 14.0345 0.00521551 13.9071L0.0212173 13.8167L0.842909 10.2523C0.883502 10.0775 0.962789 9.91397 1.07493 9.77384L1.16374 9.67383L10.1343 0.703231ZM9.56868 3.53155L2.37588 10.7243L1.86702 12.931L4.07367 12.4213L11.2665 5.22853L9.56868 3.53155ZM12.3978 1.83456C12.26 1.6968 12.0767 1.61405 11.8823 1.60182C11.6878 1.58959 11.4956 1.64874 11.3417 1.76815L11.2665 1.83456L10.7 2.40022L12.3978 4.09721L12.9635 3.53155C13.1012 3.39378 13.184 3.21048 13.1962 3.01603C13.2084 2.82159 13.1493 2.62937 13.0299 2.47543L12.9635 2.40022L12.3978 1.83456Z" fill="#C3BEB1"/>
</svg>
