<svg width="81" height="82" viewBox="0 0 81 82" fill="none" xmlns="http://www.w3.org/2000/svg">
<path d="M30.2 0.662663C19 3.56266 8.4 12.3627 3.2 23.4627C0.2 29.6627 0 30.9627 0 40.6627C0 50.3627 0.2 51.6627 3.2 57.8627C7.3 66.6627 14.5 73.8627 23.3 77.9627C29.5 80.9627 30.8 81.1627 40.5 81.1627C50.2 81.1627 51.5 80.9627 57.7 77.9627C66.5 73.8627 73.7 66.6627 77.8 57.8627C80.8 51.6627 81 50.3627 81 40.6627C81 30.9627 80.8 29.6627 77.8 23.4627C73.7 14.7627 66.4 7.46266 57.9 3.46266C52.5 0.962663 49.8 0.362664 42.7 0.0626635C37.9 -0.137336 32.3 0.162664 30.2 0.662663ZM54.9 10.5627C62.4 14.2627 67.7 19.7627 71.3 27.5627C74.8 35.1627 74.9 45.7627 71.6 53.3627C69.1 59.0627 66.5 62.0627 66.5 59.3627C66.5 57.2627 61.1 53.2627 56 51.5627C53.5 50.6627 47.6 50.1627 40 50.1627C29.1 50.1627 27.5 50.4627 22.3 52.8627C19.2 54.2627 16 56.4627 15.3 57.5627C14.6 58.7627 13.7 59.6627 13.2 59.6627C12.8 59.6627 11.2 57.0627 9.7 53.8627C5.9 45.8627 5.9 35.5627 9.6 27.6627C18.2 9.26266 37.6 1.96266 54.9 10.5627ZM50.9 58.0627C58.1 59.7627 61.2 62.4627 59.6 65.5627C56.3 71.6627 44.1 75.7627 35.1 73.7627C29.6 72.5627 21.9 67.8627 20.8 65.0627C19.9 62.6627 23.4 59.8627 29.5 58.2627C36.5 56.3627 43.4 56.3627 50.9 58.0627Z" fill="#2E7A53"/>
<path d="M36.6 12.6627C28.7 14.4627 24.2 20.9627 24.8 29.4627C25.4 38.3627 31.4 43.8627 40.5 43.8627C46.1 43.8627 50.7 41.6627 53.9 37.3627C56.9 33.3627 56.9 22.9627 53.9 18.9627C50 13.7627 43.1 11.2627 36.6 12.6627ZM46.6 22.5627C48.3 24.3627 49.5 26.5627 49.5 28.1627C49.5 31.9627 44.5 36.6627 40.5 36.6627C36.5 36.6627 31.5 31.9627 31.5 28.1627C31.5 26.5627 32.7 24.3627 34.4 22.5627C38.4 18.6627 42.6 18.6627 46.6 22.5627Z" fill="#2E7A53"/>
</svg>
