<svg width="191" height="80" viewBox="0 0 191 80" fill="none" xmlns="http://www.w3.org/2000/svg">
<path d="M26.2251 0.436394C23.7582 1.58598 22.465 3.78938 22.7044 6.42385C22.8481 8.07639 23.5427 9.51339 24.5965 10.3277C26.2969 11.6689 26.2251 11.5012 26.2251 14.0878V16.4828H20.046C14.6573 16.4828 13.6035 16.5546 11.9989 16.9618C6.9215 18.2551 2.37103 22.4463 0.550846 27.4997C0 29.0325 0 29.2002 0 38.8759C0 48.5277 0 48.7193 0.550846 50.2521C2.03574 54.3954 5.02947 57.8442 8.76564 59.6883C12.3342 61.4366 12.8371 61.5085 21.2196 61.5085H28.5722L28.668 65.3405C28.7638 68.9569 28.7877 69.1724 29.3386 69.7712C30.2247 70.7292 31.494 70.6094 33.4819 69.3401C40.4513 64.9333 47.0854 60.6702 49.0972 59.3291C51.7556 57.5568 54.1745 55.1618 55.0846 53.3655C55.5876 52.3836 55.8031 52.1681 56.3061 52.1681C57.9107 52.1681 60.1381 50.3 61.1439 48.1445C61.7187 46.8751 61.7906 46.4919 61.8624 42.6839C61.9343 40.1452 61.8624 38.1095 61.6948 37.2713C61.2876 35.3792 60.1141 33.583 58.5095 32.3376C57.3838 31.4993 57.1204 31.1401 57.0006 30.4216C56.7372 28.8888 55.8989 26.4699 55.1325 25.0089C53.456 21.8715 49.2169 18.2551 45.8879 17.1534C44.4509 16.6744 43.7085 16.6265 37.5534 16.5307L30.7755 16.4349V14.3752C30.7755 11.6689 30.8713 11.3575 31.973 10.639C34.7033 8.84279 35.1344 4.53181 32.8592 1.94524C31.2785 0.148994 28.3087 -0.521599 26.2251 0.436394ZM42.99 21.5123C43.8522 21.656 45.1934 22.0871 46.0076 22.4702C48.5942 23.7396 51.2527 27.0686 52.067 30.0624C52.2346 30.685 52.3544 34.038 52.3544 39.1393C52.3783 46.8991 52.3544 47.3302 51.8514 48.8151C50.6779 52.2878 49.2169 53.7966 43.445 57.3652C41.2895 58.7064 38.176 60.6702 36.5235 61.724L33.5298 63.64L33.41 60.79C33.2184 56.479 34.2243 56.8622 22.8002 56.7185C13.8909 56.5988 13.3401 56.5748 11.9989 56.0719C9.10094 54.9702 6.75386 52.6231 5.36476 49.3659L4.55047 47.4978L4.47862 39.9776C4.43072 35.0439 4.47862 31.9065 4.67022 30.8766C5.46056 26.2783 9.31649 22.2547 13.5796 21.5362C15.3997 21.2488 41.074 21.2249 42.99 21.5123Z" fill="#2E7A53"/>
<path d="M15.9985 30.3976C13.9628 31.4035 12.9329 33.2476 13.1245 35.5468C13.4598 39.738 17.9863 41.7738 21.483 39.259C23.9019 37.5347 24.2372 34.014 22.2015 31.7627C20.549 29.9186 18.0582 29.3678 15.9985 30.3976Z" fill="#2E7A53"/>
<path d="M36.9546 30.1342C35.8529 30.4695 34.4399 31.7388 33.8651 32.9124C33.1226 34.4691 33.3142 36.6964 34.2722 37.9897C35.2781 39.307 35.7811 39.6662 37.2181 40.0973C39.7088 40.8398 42.3194 39.7381 43.3732 37.4868C44.3791 35.2834 43.9719 33.0561 42.2475 31.4035C40.8105 30.0384 38.8227 29.5594 36.9546 30.1342Z" fill="#2E7A53"/>
<path d="M82.8425 10.6151C79.8488 11.2617 77.4777 12.9621 76.376 15.2134C75.8491 16.2672 75.7294 16.8899 75.7054 18.3509C75.6815 20.6261 76.0647 21.7757 77.3101 23.1169C79.1063 25.0568 80.9983 25.8711 86.1476 26.901C91.1291 27.9068 92.2069 28.5774 92.2069 30.709C92.2069 31.7149 92.0632 32.146 91.5602 32.8166C90.1951 34.6128 86.9619 35.4031 84.4711 34.5889C82.8904 34.062 81.2378 32.5771 80.687 31.188L80.232 30.0863L78.8189 30.23C78.0525 30.3018 76.9269 30.3737 76.3521 30.3737H75.2743L75.442 31.3796C75.6815 32.9363 76.8071 35.1636 77.9088 36.2414C79.9206 38.2532 82.6988 39.2351 86.4829 39.2351C91.656 39.2351 95.009 37.6784 96.5657 34.4931C97.1405 33.3435 97.2363 32.8166 97.2363 31.2119C97.2363 26.6136 94.554 24.2425 87.6804 22.7097C84.016 21.9194 82.4832 21.3206 81.5013 20.3866C80.0164 18.9736 80.5433 16.7702 82.6988 15.405C83.7286 14.7584 84.016 14.6865 85.8602 14.6865C87.6564 14.6865 88.0396 14.7584 88.9976 15.3332C90.3388 16.1235 91.3447 17.2492 91.5363 18.1832C91.656 18.8299 91.7279 18.8778 92.9254 18.8778C93.6199 18.8778 94.6977 18.8059 95.3204 18.7101L96.446 18.5664L96.3262 17.321C95.7994 12.2916 89.5245 9.15412 82.8425 10.6151Z" fill="#2E7A53"/>
<path d="M155.411 10.8067C155.339 10.9982 155.315 13.2016 155.363 15.7164C155.411 18.2551 155.363 20.3147 155.291 20.3147C155.219 20.3147 154.932 20.0513 154.62 19.7399C154.333 19.4286 153.495 18.8777 152.728 18.4946C151.603 17.9198 151.004 17.7761 149.255 17.7042C146.477 17.6084 144.202 18.3748 142.334 20.0273C139.819 22.3026 138.694 24.9131 138.694 28.5774C138.694 32.0262 139.699 34.5888 141.831 36.7204C145.232 40.0494 151.028 40.3129 154.453 37.2952L155.554 36.3132V37.0078C155.554 38.7082 155.65 38.7561 157.973 38.7561H160.105V24.6257V10.4953H157.829C156.129 10.4953 155.506 10.5911 155.411 10.8067ZM152.345 22.8295C154.476 24.0749 155.387 25.7753 155.363 28.5056C155.363 31.3556 154.237 33.2477 151.842 34.517C150.597 35.1636 148.369 35.2115 147.172 34.5888C143.244 32.5531 142.31 26.853 145.423 23.7396C147.22 21.9433 150.166 21.5601 152.345 22.8295Z" fill="#2E7A53"/>
<path d="M102.386 15.405V18.1593H100.709H99.0326V20.195V22.2307H100.709H102.386V27.9308C102.386 34.4691 102.577 35.5229 103.99 37.1036C105.379 38.6603 106.457 39.0914 108.852 39.0675C109.978 39.0675 111.175 38.9477 111.558 38.804C112.181 38.5406 112.205 38.4687 112.205 36.6485V34.7805L110.792 34.8762C109.834 34.9481 109.139 34.8523 108.589 34.5889C107.104 33.8943 107.056 33.7027 106.984 27.6673L106.912 22.2307H109.403H111.918L112.013 20.7219C112.157 18.0395 112.277 18.1593 109.427 18.1593H106.936V15.405V12.6508H104.661H102.386V15.405Z" fill="#2E7A53"/>
<path d="M163.074 18.4467C163.027 18.5425 163.29 19.3328 163.697 20.219C164.104 21.1051 165.014 23.2366 165.709 24.961C167.984 30.5413 169.948 35.2595 170.547 36.5048C170.858 37.1754 171.122 37.87 171.122 38.0376C171.122 38.2053 170.427 40.0015 169.565 41.9894C168.703 44.0011 168.008 45.7255 168.008 45.7974C168.008 45.8692 169.038 45.9411 170.283 45.9411C172.439 45.9411 172.583 45.9171 172.774 45.3902C172.894 45.1028 173.301 44.1688 173.684 43.3066C174.091 42.4444 174.858 40.5763 175.409 39.1393C175.983 37.7023 176.534 36.3611 176.654 36.1456C176.774 35.9301 178.378 32.0981 180.223 27.6195C182.067 23.1408 183.695 19.2849 183.839 19.0454C183.983 18.782 184.031 18.5425 183.959 18.4706C183.791 18.303 179.241 18.3269 179.073 18.4946C178.953 18.6383 178.354 20.1232 175.457 27.6195C173.996 31.3556 173.66 32.0262 173.397 31.7628C173.325 31.6909 172.678 30.1342 171.96 28.314C170.259 23.9312 168.296 19.0694 168.056 18.6622C167.936 18.4467 167.242 18.3269 165.517 18.303C164.224 18.303 163.122 18.3509 163.074 18.4467Z" fill="#2E7A53"/>
<path d="M115.845 25.9909L115.917 33.6069L116.588 34.972C117.737 37.3191 119.869 38.828 122.551 39.2112C125.186 39.5704 128.06 38.8519 129.521 37.4389C130.287 36.6964 130.407 36.7443 130.622 37.846L130.79 38.6364L132.993 38.7082L135.197 38.7801V28.5774V18.3988H132.682H130.167V24.5299C130.167 31.643 130.072 32.146 128.491 33.7506C126.024 36.2174 122.527 35.6426 121.138 32.5292C120.611 31.3317 120.635 31.5712 120.611 24.6736L120.587 18.3988H118.169H115.774L115.845 25.9909Z" fill="#2E7A53"/>
<path d="M138.789 48.839V53.8924L137.903 53.126C136.251 51.6651 135.173 51.3298 132.083 51.3298C129.617 51.3298 129.185 51.4016 127.988 51.9525C124.276 53.7008 122.264 57.1975 122.264 61.8677C122.264 65.4841 123.342 68.1905 125.545 70.1304C127.03 71.4237 128.036 71.9267 129.88 72.2859C132.97 72.9086 135.844 72.2619 137.759 70.5136C138.286 70.0346 138.789 69.6514 138.861 69.6514C138.933 69.6514 139.029 70.1544 139.077 70.7771L139.149 71.9267L141.256 71.9985L143.34 72.0704V57.916V43.7856H141.065H138.789V48.839ZM135.149 55.9042C137.137 56.7185 138.55 58.7782 138.741 61.1492C139.22 67.4001 132.514 70.801 128.659 66.2745C127.03 64.3825 126.623 61.724 127.557 59.2093C128.132 57.6765 129.497 56.2156 130.694 55.8324C131.892 55.4492 134.143 55.4731 135.149 55.9042Z" fill="#2E7A53"/>
<path d="M162.907 43.9293C162.811 44.0251 162.739 46.3243 162.739 49.0306V53.9403L161.973 53.1739C160.536 51.8088 159.123 51.3298 156.273 51.3298C153.95 51.3298 153.638 51.3777 152.153 52.0962C145.759 55.1139 144.226 64.5501 149.279 69.8191C151.052 71.6632 152.56 72.3338 155.267 72.4775C158.332 72.6451 160.177 72.1422 161.757 70.7052L162.931 69.6514L163.122 70.801L163.338 71.9266L165.446 71.9985L167.529 72.0703L167.481 57.9878L167.409 43.9053L165.254 43.8335C164.056 43.8095 163.003 43.8335 162.907 43.9293ZM159.266 55.9761C161.901 57.1496 163.194 59.8799 162.691 63.0892C162.308 65.556 161.158 67.0409 158.931 68.0468C156.824 68.9808 154.069 68.1905 152.584 66.2266C152.249 65.7955 151.794 64.7177 151.555 63.8316C151.028 61.8438 151.339 59.6164 152.369 57.9639C153.71 55.8084 156.895 54.8744 159.266 55.9761Z" fill="#2E7A53"/>
<path d="M75.8013 58.0357V72.0464H82.5791C87.8241 72.0464 89.6682 71.9745 90.722 71.6871C94.6977 70.6573 96.8292 68.3102 97.0687 64.7417C97.2843 61.3408 95.8473 58.7542 93.4044 58.1076C92.8056 57.9399 92.3506 57.7483 92.3745 57.6525C92.4224 57.5567 92.9254 57.1256 93.5241 56.6706C95.1288 55.4492 95.967 53.6529 95.991 51.4016C95.991 50.3478 95.8473 49.318 95.6078 48.7671C95.0809 47.5218 93.4283 45.8213 92.1829 45.2226C90.0035 44.1448 88.9497 44.0251 82.2198 44.0251H75.8013V58.0357ZM89.0455 48.6953C90.1951 49.2461 90.6981 49.9886 90.8897 51.4974C91.1292 53.2218 90.5544 54.3235 89.0695 55.066C87.9917 55.5929 87.6085 55.6408 84.4232 55.6408H80.9505L80.8786 52.168C80.8547 50.276 80.8786 48.5756 80.9505 48.384C81.166 47.8331 87.8001 48.0966 89.0455 48.6953ZM88.2552 60.0954C91.1052 60.5505 92.3266 61.6761 92.3266 63.8316C92.3027 65.6757 91.3687 66.969 89.5724 67.6875C89.0695 67.9031 87.5606 67.9749 84.9022 67.927L80.9505 67.8552L80.8786 64.1429C80.8547 62.1072 80.8786 60.311 80.9265 60.1433C81.0942 59.7601 85.956 59.7122 88.2552 60.0954Z" fill="#2E7A53"/>
<path d="M100.23 59.1614V66.6577L100.925 68.0947C102.218 70.801 104.373 72.214 107.535 72.4535C109.786 72.6212 112.133 71.9506 113.57 70.7531C114.528 69.9149 114.552 69.9149 114.696 70.4417C114.768 70.7291 114.839 71.2081 114.839 71.4955C114.839 72.0224 114.911 72.0464 116.995 72.0464H119.15V61.8677V51.689H116.755H114.36V57.8202C114.36 61.724 114.265 64.3106 114.097 64.8854C113.738 66.0829 112.612 67.4001 111.463 67.9749C110.361 68.5497 108.397 68.5976 107.439 68.0947C106.505 67.6157 105.571 66.4421 105.26 65.3883C105.14 64.8854 105.02 61.7719 105.02 58.0836V51.689H102.625H100.23V59.1614Z" fill="#2E7A53"/>
<path d="M170.116 51.8088C170.044 51.8806 170.451 53.0063 171.002 54.2756C171.577 55.545 173.062 59.0656 174.307 62.1072C175.576 65.1249 176.989 68.5018 177.444 69.5556L178.259 71.5195L177.444 73.3876C176.271 76.046 175.193 78.7284 175.193 78.9919C175.193 79.3511 179.672 79.3032 179.815 78.92C179.887 78.7763 180.821 76.525 181.899 73.9624C182.977 71.3998 184.605 67.5199 185.492 65.3404C188.605 57.7962 189.539 55.521 190.281 53.8685C190.665 52.9584 191 52.0962 191 51.9525C191 51.7848 190.162 51.689 188.605 51.689C186.33 51.689 186.186 51.713 185.971 52.2159C185.324 53.7966 182.953 59.808 182.091 62.1072C180.869 65.3644 180.63 65.6997 180.175 64.598C179.983 64.143 178.762 61.0534 177.444 57.7483L175.073 51.689H172.654C171.337 51.689 170.188 51.7369 170.116 51.8088Z" fill="#2E7A53"/>
</svg>
